HIERARCHY
ROOT Hips
{
 OFFSET 0.000000 0.000000 0.000000
 CHANNELS 6 Xposition Yposition Zposition Yrotation Xrotation Zrotation
 JOINT Chest
 {
  OFFSET 0.000000 10.080317 -0.001081
  CHANNELS 3 Yrotation Xrotation Zrotation
  JOINT Chest2
  {
   OFFSET 0.000000 11.096852 0.001963
   CHANNELS 3 Yrotation Xrotation Zrotation
   JOINT Chest3
   {
    OFFSET 0.000000 10.026525 0.000000
    CHANNELS 3 Yrotation Xrotation Zrotation
    JOINT Chest4
    {
     OFFSET 0.000000 10.026525 0.000000
     CHANNELS 3 Yrotation Xrotation Zrotation
     JOINT Neck
     {
      OFFSET 0.000000 14.108171 0.000000
      CHANNELS 3 Yrotation Xrotation Zrotation
      JOINT Head
      {
       OFFSET 0.000000 9.333493 0.004668
       CHANNELS 3 Yrotation Xrotation Zrotation
       End Site
       {
        OFFSET 0.000000 17.851786 0.002438
       }
      }
     }
     JOINT RightCollar
     {
      OFFSET -3.071622 7.873185 0.000000
      CHANNELS 3 Yrotation Xrotation Zrotation
      JOINT RightShoulder
      {
       OFFSET -14.378659 0.000000 0.000000
       CHANNELS 3 Yrotation Xrotation Zrotation
       JOINT RightElbow
       {
        OFFSET -30.778728 0.000000 0.000000
        CHANNELS 3 Yrotation Xrotation Zrotation
        JOINT RightWrist
        {
         OFFSET -25.164217 0.000000 0.000000
         CHANNELS 3 Yrotation Xrotation Zrotation
         End Site
         {
          OFFSET -18.796788 0.000000 0.000000
         }
        }
       }
      }
     }
     JOINT LeftCollar
     {
      OFFSET 3.071622 7.873185 0.000000
      CHANNELS 3 Yrotation Xrotation Zrotation
      JOINT LeftShoulder
      {
       OFFSET 14.378659 0.000000 0.000000
       CHANNELS 3 Yrotation Xrotation Zrotation
       JOINT LeftElbow
       {
        OFFSET 30.778728 0.000000 0.000000
        CHANNELS 3 Yrotation Xrotation Zrotation
        JOINT LeftWrist
        {
         OFFSET 25.164217 0.000000 0.000000
         CHANNELS 3 Yrotation Xrotation Zrotation
         End Site
         {
          OFFSET 18.796788 0.000000 0.000000
         }
        }
       }
      }
     }
    }
   }
  }
 }
 JOINT RightHip
 {
  OFFSET -8.194923 0.005295 0.000540
  CHANNELS 3 Yrotation Xrotation Zrotation
  JOINT RightKnee
  {
   OFFSET 0.000000 -42.473320 -0.000511
   CHANNELS 3 Yrotation Xrotation Zrotation
   JOINT RightAnkle
   {
    OFFSET 0.000000 -41.474259 -0.000865
    CHANNELS 3 Yrotation Xrotation Zrotation
    JOINT RightToe
    {
     OFFSET 0.000000 -7.354994 16.712725
     CHANNELS 3 Yrotation Xrotation Zrotation
     End Site
     {
      OFFSET 0.000000 -1.553903 6.764158
     }
    }
   }
  }
 }
 JOINT LeftHip
 {
  OFFSET 8.194923 0.005295 0.000540
  CHANNELS 3 Yrotation Xrotation Zrotation
  JOINT LeftKnee
  {
   OFFSET 0.000000 -42.473320 -0.000511
   CHANNELS 3 Yrotation Xrotation Zrotation
   JOINT LeftAnkle
   {
    OFFSET 0.000000 -41.474259 -0.000865
    CHANNELS 3 Yrotation Xrotation Zrotation
    JOINT LeftToe
    {
     OFFSET 0.000000 -7.354994 16.712725
     CHANNELS 3 Yrotation Xrotation Zrotation
     End Site
     {
      OFFSET 0.000000 -1.553903 6.764158
     }
    }
   }
  }
 }
}
MOTION
Frames: 14
Frame Time: 0.016667
0.000000 91.111157 0.000000 0.000000 -5.826342 0.000000 0.000000 11.116423 0.000000 0.000000 -5.290081 0.000000 0.000000 0.000000 0.000000 0.000000 0.000000 0.000000 0.000000 12.665069 0.000000 0.000000 0.575450 0.000000 0.000000 0.000000 0.000000 0.000000 0.000000 0.000000 2.337306 0.000000 0.000000 -2.337306 0.000000 0.000000 0.000000 0.000000 0.000000 0.000000 0.000000 0.000000 -2.337306 0.000000 0.000000 2.337306 0.000000 0.000000 0.000000 8.578828 0.000000 0.000000 1.905768 0.000000 0.000000 -4.658254 0.000000 0.000000 0.000000 0.000000 0.000000 8.578828 0.000000 0.000000 1.905768 0.000000 0.000000 -4.658254 0.000000 0.000000 0.000000 0.000000
175.345485 93.618000 -405.499843 -45.200424 19.719382 18.574105 2.974245 8.953817 9.141446 0.077511 3.870404 3.369071 0.077511 3.870404 3.369071 0.036747 2.903334 2.525350 -6.068793 9.725424 -1.712988 -11.014896 -18.015458 -0.493800 6.966041 -2.788466 9.290075 -20.289517 -27.721941 40.469846 63.745313 11.788743 2.969308 21.095583 11.124130 -52.115678 -11.635530 1.491600 -10.249182 1.207030 -19.784134 -70.865213 -27.469171 -19.888895 -35.515141 -9.693866 -4.897146 28.263533 -15.684363 -26.058850 -8.680953 -5.794201 -2.315609 4.015831 -1.010300 2.748202 -6.898331 -0.680596 1.818513 -0.304840 17.987805 -12.519673 -7.109952 13.539214 22.904243 -7.769953 0.219377 10.387334 -21.585113 -3.715372 -27.538627 11.953309
175.390798 93.609139 -405.521236 -45.213226 19.731224 18.585215 3.034971 8.949030 9.160191 0.078134 3.869871 3.366319 0.078134 3.869871 3.366319 0.037234 2.902938 2.523283 -6.057255 9.715038 -1.727825 -10.986209 -18.036547 -0.527094 6.987034 -2.792745 9.268058 -20.293552 -27.748254 40.382614 63.704951 11.759054 2.954435 21.078582 11.109104 -52.134079 -11.645191 1.451720 -10.255484 1.199418 -19.788726 -70.884884 -27.451699 -19.929243 -35.541728 -9.694170 -4.903238 28.247809 -15.748687 -26.093641 -8.677181 -5.887901 -2.351832 4.038932 -0.802574 2.816316 -6.859759 -0.754659 1.851329 -0.339536 18.108837 -12.406210 -7.150756 13.622054 22.787739 -7.786939 0.102705 10.217648 -21.563223 -3.650782 -27.290678 11.976464
175.446414 93.657294 -405.546686 -45.112141 19.758404 18.706971 2.972721 8.895373 9.087990 0.079506 3.868239 3.364809 0.079506 3.868239 3.364809 0.038282 2.901721 2.522143 -6.030622 9.710285 -1.735703 -10.931011 -18.047506 -0.554365 7.017727 -2.787248 9.241832 -20.271170 -27.781261 40.289218 63.616170 11.735586 2.914433 21.105054 11.065756 -52.130743 -11.625839 1.411850 -10.266234 1.197185 -19.776025 -70.923194 -27.455217 -19.958497 -35.564123 -9.678211 -4.912113 28.208616 -15.867179 -26.200485 -8.739296 -6.016009 -2.386943 4.067340 -0.629019 2.964709 -6.849095 -0.787734 1.808518 -0.355913 18.207659 -12.272324 -7.284469 13.625297 22.640089 -7.815101 -0.066590 9.855875 -21.537438 -3.473276 -26.849286 11.977147
175.510529 93.728398 -405.545743 -44.826681 19.743261 18.970432 2.711418 8.815331 8.907496 0.081134 3.865673 3.362042 0.081134 3.865673 3.362042 0.039534 2.899805 2.520061 -5.991008 9.723770 -1.734803 -10.853435 -18.024706 -0.572164 7.056039 -2.754895 9.241092 -20.237789 -27.855390 40.192543 63.492556 11.720433 2.903130 21.110398 11.027478 -52.145588 -11.608548 1.384319 -10.272358 1.174658 -19.765754 -70.927573 -27.462126 -19.983990 -35.596139 -9.692616 -4.924443 28.149144 -16.165024 -26.328938 -8.885002 -6.171189 -2.443563 4.109516 -0.456384 3.116274 -6.847223 -0.764374 1.765238 -0.353465 18.198658 -12.079762 -7.511817 13.550702 22.469456 -7.847740 -0.232492 9.224488 -21.448734 -3.165226 -25.914613 11.886534
175.604524 93.857115 -405.504707 -44.491891 19.763502 19.377169 2.371011 8.666149 8.572543 0.079825 3.860631 3.360935 0.079825 3.860631 3.360935 0.038587 2.896016 2.519242 -5.950223 9.755875 -1.731014 -10.773718 -17.967223 -0.586443 7.165979 -2.620248 9.245959 -20.192558 -28.013757 40.069926 63.302486 11.724751 2.856338 21.152237 10.953628 -52.113963 -11.566866 1.371434 -10.289051 1.152595 -19.739929 -70.927693 -27.493062 -20.020212 -35.627193 -9.699821 -4.931895 28.070562 -16.518608 -26.537033 -9.132276 -6.304573 -2.545743 4.162469 -0.326405 3.355090 -6.869545 -0.663571 1.663672 -0.318642 18.161848 -11.863781 -7.858117 13.462904 22.310171 -7.884156 -0.384680 8.277922 -21.308696 -2.702707 -24.299392 11.694451
175.713126 94.050600 -405.434582 -43.835051 19.694995 19.933108 1.702320 8.471302 8.170112 0.079171 3.854942 3.358555 0.079171 3.854942 3.358555 0.038144 2.891745 2.517465 -5.913660 9.800259 -1.719558 -10.705031 -17.886139 -0.584852 7.324172 -2.463172 9.284952 -20.141548 -28.245341 39.909921 62.972303 11.724948 2.819727 21.226619 10.868563 -52.055994 -11.536893 1.363345 -10.291747 1.154543 -19.726801 -70.947830 -27.515563 -20.041221 -35.664872 -9.691699 -4.928887 27.994124 -17.228300 -26.768285 -9.402967 -6.410574 -2.677135 4.222969 -0.299456 3.718111 -6.933175 -0.456234 1.440120 -0.236233 17.791865 -11.607403 -8.242434 13.385439 22.132455 -7.911592 -0.616034 7.175872 -21.221646 -2.013281 -21.897025 11.483676
175.808361 94.272683 -405.353506 -43.286542 19.549864 20.362565 1.124191 8.346828 7.841351 0.080138 3.848611 3.355670 0.080138 3.848611 3.355670 0.038922 2.887001 2.515300 -5.890670 9.852943 -1.705875 -10.663270 -17.788742 -0.573302 7.512067 -2.263440 9.338837 -20.120200 -28.516658 39.759247 62.565741 11.744246 2.753973 21.381775 10.758292 -51.967580 -11.511594 1.373554 -10.325486 1.144908 -19.737662 -70.942290 -27.510397 -20.041968 -35.699110 -9.686895 -4.937282 27.919407 -17.905578 -26.885064 -9.600786 -6.516239 -2.796532 4.264479 -0.257322 4.189917 -6.966778 -0.267843 1.103420 -0.166362 17.402248 -11.264444 -8.499407 13.383401 21.982299 -7.917196 -0.835332 6.196954 -21.151993 -1.227067 -18.854026 11.234367
175.885157 94.493301 -405.280269 -42.983943 19.385045 20.592270 0.768917 8.297452 7.611226 0.081290 3.840997 3.351777 0.081290 3.840997 3.351777 0.039852 2.881296 2.512378 -5.887040 9.894713 -1.691757 -10.660067 -17.710459 -0.551045 7.744733 -1.967051 9.395422 -20.097112 -28.867634 39.564925 62.079006 11.679462 2.692398 21.499462 10.680058 -51.816529 -11.474157 1.368531 -10.396310 1.076193 -19.734510 -70.920644 -27.508892 -20.066089 -35.676888 -9.683041 -4.935461 27.866532 -18.391653 -26.870541 -9.713143 -6.604822 -2.921783 4.307914 -0.190199 4.687681 -6.957904 -0.143171 0.751689 -0.136898 17.123384 -10.870733 -8.589749 13.483202 21.902242 -7.922491 -0.967501 5.362071 -21.022746 -0.418487 -15.289966 10.906269
175.937737 94.700619 -405.218884 -42.828443 19.170671 20.656056 0.547644 8.317067 7.465999 0.083212 3.832077 3.344882 0.083212 3.832077 3.344882 0.041386 2.874615 2.507203 -5.896123 9.934939 -1.675611 -10.682594 -17.634171 -0.518877 8.000116 -1.576015 9.453178 -20.153042 -29.276289 39.407371 61.538396 11.467130 2.622605 21.646880 10.547322 -51.697416 -11.402099 1.365213 -10.478779 0.973702 -19.732256 -70.907744 -27.524267 -20.065599 -35.612755 -9.666661 -4.939249 27.826963 -18.773297 -26.724011 -9.743869 -6.743867 -3.034828 4.354979 -0.057877 5.187754 -6.928339 -0.057666 0.394480 -0.127713 16.855817 -10.425574 -8.523488 13.628109 21.853159 -7.972348 -0.941427 4.705990 -20.729852 0.047488 -11.541750 8.393113
175.979139 94.890986 -405.171480 -42.713394 18.950522 20.634383 0.410220 8.340406 7.368242 0.084096 3.823020 3.332888 0.084096 3.823020 3.332888 0.042174 2.867824 2.498211 -5.933865 9.964386 -1.659973 -10.761217 -17.576269 -0.473645 8.264126 -1.202216 9.539548 -20.291404 -29.646036 39.193496 60.995557 11.106156 2.565339 21.863580 10.464745 -51.814570 -11.346108 1.355053 -10.544802 0.889548 -19.756785 -70.927156 -27.547339 -20.036765 -35.518872 -9.651991 -4.904457 27.790162 -19.122851 -26.528837 -9.723406 -6.842663 -3.139651 4.415479 0.062331 5.614395 -6.896358 -0.014761 0.102481 -0.125666 16.558744 -9.996040 -8.361591 13.785113 21.814629 -8.027742 -0.857949 4.280604 -20.400323 0.268700 -8.707756 6.347522
176.002301 95.053391 -405.139453 -42.632921 18.674697 20.532822 0.373670 8.402089 7.315682 0.093651 3.808774 3.317514 0.093651 3.808774 3.317514 0.049511 2.857188 2.486634 -6.002000 9.986939 -1.639973 -10.901283 -17.529000 -0.405467 8.415383 -0.839186 9.636372 -20.586558 -29.937661 39.180855 60.604915 10.660360 2.488272 22.161113 10.299878 -51.855999 -11.329378 1.365346 -10.626982 0.789359 -19.822465 -70.927275 -27.567626 -19.989211 -35.424342 -9.619450 -4.876908 27.801966 -19.414642 -26.238187 -9.661376 -6.926239 -3.236558 4.447265 0.143336 5.990043 -6.865216 -0.000068 -0.153957 -0.119438 16.287197 -9.542189 -8.112378 13.918874 21.815678 -8.063675 -0.727940 4.079112 -20.067524 0.305877 -6.636048 4.690556
176.024884 95.191274 -405.129877 -42.473595 18.414915 20.437397 0.389314 8.428105 7.274829 0.119111 3.796478 3.304062 0.119111 3.796478 3.304062 0.068751 2.848101 2.476398 -6.119206 9.986380 -1.613170 -11.141286 -17.520959 -0.299646 8.369678 -0.450030 9.719735 -21.011236 -30.075303 39.334847 60.604233 10.110636 2.481563 22.387885 10.119029 -51.975033 -11.403311 1.295566 -10.705346 0.687815 -19.876435 -70.937473 -27.590046 -19.943684 -35.324362 -9.586360 -4.829787 27.805141 -19.658090 -25.969639 -9.611961 -7.035654 -3.307122 4.467067 0.165595 6.255859 -6.835656 0.012204 -0.324572 -0.113629 16.018605 -9.141525 -7.856268 14.009215 21.840912 -8.086696 -0.626177 4.038824 -19.759807 0.270725 -5.138018 3.376036
176.039502 95.303899 -405.133893 -42.235701 18.129276 20.323439 0.424327 8.448832 7.256184 0.142923 3.782254 3.292930 0.142923 3.782254 3.292930 0.086751 2.837558 2.467914 -6.249277 9.971285 -1.588047 -11.406515 -17.538869 -0.189903 8.240679 -0.050746 9.783209 -21.721798 -30.033684 39.793123 61.261232 9.872835 2.616376 22.495773 10.160949 -52.278595 -11.465835 1.210653 -10.789217 0.582674 -19.918382 -70.946423 -27.654087 -19.913762 -35.257552 -9.541754 -4.773112 27.829470 -19.865186 -25.671047 -9.572699 -7.199843 -3.350187 4.476271 0.152374 6.442705 -6.801017 0.014834 -0.446176 -0.108969 15.778636 -8.742716 -7.568024 14.039750 21.879404 -8.096785 -0.557655 4.154354 -19.510452 0.196112 -4.092183 2.366726
